<?xml version="1.0" encoding="UTF-8"?>
<svg version="1.1" xmlns="http://www.w3.org/2000/svg" width="64" height="64">
<path d="M0 0 C3.54009936 0.95076954 5.02049817 2.56880297 7.05078125 5.55078125 C7.19515625 6.66453125 7.33953125 7.77828125 7.48828125 8.92578125 C8.25945637 13.89557645 10.62808936 16.04774448 14.05078125 19.55078125 C14.51742187 20.1128125 14.9840625 20.67484375 15.46484375 21.25390625 C18.91615207 25.22580297 21.79759544 26.3573634 27 27.03125 C29.55433474 27.67834813 30.50368317 28.42712488 32.05078125 30.55078125 C32.90047018 34.70736765 32.74082605 38.40070659 30.55078125 42.05078125 C28.05078125 43.55078125 28.05078125 43.55078125 24.33203125 43.734375 C19.03594374 44.31626996 16.49587366 47.30280026 13.05078125 51.11328125 C12.46683594 51.72880859 11.88289063 52.34433594 11.28125 52.97851562 C9.85452338 54.4871036 8.45026944 56.01689099 7.05078125 57.55078125 C8.50677734 57.98197266 8.50677734 57.98197266 9.9921875 58.421875 C11.00152344 58.79441406 12.01085938 59.16695312 13.05078125 59.55078125 C13.98828125 61.61328125 13.98828125 61.61328125 14.05078125 63.55078125 C13.05078125 64.55078125 13.05078125 64.55078125 10.09155273 64.66430664 C8.79805908 64.65906982 7.50456543 64.65383301 6.171875 64.6484375 C5.14188133 64.64631508 5.14188133 64.64631508 4.09107971 64.64414978 C1.89010324 64.63853604 -0.31077284 64.62598132 -2.51171875 64.61328125 C-4.00064958 64.60826801 -5.48958199 64.6037048 -6.97851562 64.59960938 C-10.6354495 64.58856218 -14.29232433 64.57128838 -17.94921875 64.55078125 C-18.33140642 62.89463468 -18.66316977 61.22621101 -18.94921875 59.55078125 C-18.45421875 59.05578125 -18.45421875 59.05578125 -17.94921875 58.55078125 C-17.12679688 58.66679688 -16.304375 58.7828125 -15.45703125 58.90234375 C-9.83933614 59.35642996 -6.02715491 59.02881788 -1.42578125 55.75585938 C1.31258108 53.41362513 3.88074265 50.97656162 6.42578125 48.42578125 C7.27640137 47.58354004 8.12702148 46.74129883 9.00341797 45.87353516 C12.44074546 42.24184126 14.77382976 39.72598693 15.93359375 34.8046875 C14.80549598 30.64669881 12.68034654 28.39298113 9.55078125 25.61328125 C9.02613281 25.12021484 8.50148437 24.62714844 7.9609375 24.11914062 C6.6729076 22.91307626 5.36383862 21.72954866 4.05078125 20.55078125 C2.01123606 21.17056873 2.01123606 21.17056873 0.05078125 22.55078125 C-0.68665588 24.99247304 -0.68665588 24.99247304 -0.88671875 27.80078125 C-1.6980629 33.27196926 -2.84726059 35.83948577 -6.94921875 39.55078125 C-8.8984375 40.36328125 -8.8984375 40.36328125 -10.94921875 40.55078125 C-14.01034698 38.77518483 -16.42165968 36.00736362 -18.94921875 33.55078125 C-20.08534763 32.49936225 -21.22211132 31.44862894 -22.359375 30.3984375 C-23.55756467 29.26337913 -24.75417441 28.1266507 -25.94921875 26.98828125 C-26.53759521 26.44671387 -27.12597168 25.90514648 -27.73217773 25.34716797 C-30.49793384 22.65119853 -31.81657973 21.22889822 -32.57421875 17.35546875 C-31.94921875 14.55078125 -31.94921875 14.55078125 -30.26171875 12.6875 C-23.26850741 8.30493006 -23.26850741 8.30493006 -18.88671875 8.11328125 C-14.56180568 7.49543653 -13.96657425 6.91977821 -11.01171875 3.98828125 C-7.41722272 0.55652815 -4.96725535 -0.43753026 0 0 Z M-3.94921875 6.55078125 C-5.26921875 8.20078125 -6.58921875 9.85078125 -7.94921875 11.55078125 C-6.62921875 12.87078125 -5.30921875 14.19078125 -3.94921875 15.55078125 C-1.25866595 14.33070181 -1.25866595 14.33070181 1.05078125 12.55078125 C1.09141957 10.8846101 1.09350225 9.2169003 1.05078125 7.55078125 C-0.59921875 7.22078125 -2.24921875 6.89078125 -3.94921875 6.55078125 Z M-23.94921875 16.55078125 C-22.33911348 20.62454156 -19.41099604 23.31585194 -16.32421875 26.30078125 C-15.55078125 27.06068359 -15.55078125 27.06068359 -14.76171875 27.8359375 C-13.49538536 29.07882027 -12.22290435 30.31543401 -10.94921875 31.55078125 C-9.95921875 31.22078125 -8.96921875 30.89078125 -7.94921875 30.55078125 C-6.51617811 27.68469996 -6.6427772 25.73777342 -6.94921875 22.55078125 C-8.99974911 18.74265344 -10.69300273 15.84054368 -14.94921875 14.55078125 C-18.58602725 14.1871004 -20.81191139 14.69163615 -23.94921875 16.55078125 Z M22.05078125 33.55078125 C22.38078125 34.87078125 22.71078125 36.19078125 23.05078125 37.55078125 C24.04078125 37.22078125 25.03078125 36.89078125 26.05078125 36.55078125 C26.05078125 35.56078125 26.05078125 34.57078125 26.05078125 33.55078125 C24.73078125 33.55078125 23.41078125 33.55078125 22.05078125 33.55078125 Z " fill="#0FCBB9" transform="translate(31.94921875,-0.55078125)"/>
</svg>
